<svg width="4154" height="1200" viewBox="0 0 4154 1200" fill="none" xmlns="http://www.w3.org/2000/svg">
<path fill-rule="evenodd" clip-rule="evenodd" d="M815.6 399.199C843.952 433.6 866.877 471.973 884 513.706V136.067C883.957 60.9427 950.522 0 1032.52 0H1060.48C1142.43 0 1209 60.9821 1209 136.067V488.376C1225.37 456.409 1245.3 426.737 1268.61 399.678C1269.17 399.049 1269.69 398.46 1270.25 397.831C1311.19 352.022 1361.37 315.014 1419.45 287.788C1481.37 258.047 1552.58 243 1628.63 243C1704.67 243 1774.63 258.086 1836.55 287.788C1894.89 315.132 1944.94 352.494 1985.36 398.814C2022.23 440.587 2050.68 488.422 2070 541.179C2089.52 488.169 2117.27 440.653 2152.58 399.678C2152.78 399.47 2152.97 399.257 2153.16 399.041C2153.32 398.863 2153.48 398.684 2153.63 398.503C2153.83 398.28 2154.02 398.056 2154.22 397.831C2194.95 352.258 2245.09 315.289 2303.27 287.866C2365.24 258.086 2436.72 243 2512.91 243C2589.09 243 2659.06 258.086 2720.78 287.866C2779.47 315.407 2829.48 352.69 2869.43 398.774C2894.11 426.573 2915.11 457.36 2932.21 490.795C2944.97 441.731 2966.92 398.949 2997.5 363.468C3030.06 324.689 3072.65 294.247 3124.18 273.009C3173.69 252.99 3230.97 243 3295.35 243C3384.85 243 3464.31 266.519 3531.63 312.929C3532.44 313.458 3533.19 314.027 3533.94 314.597C3534.47 315.002 3535.01 315.408 3535.56 315.8C3536.36 315.249 3537.13 314.669 3537.9 314.088C3538.67 313.508 3539.43 312.929 3540.23 312.378C3606.77 266.519 3686.28 243 3775.74 243C3840.03 243 3897.27 252.95 3945.87 272.576C3998.4 294.247 4041.03 324.689 4073.58 363.468C4104.24 399.022 4126.16 441.813 4138.87 490.74H4138.78C4148.9 529.952 4154 573.058 4154 619.113V1051.15C4154 1126.16 4087.16 1187 4004.67 1187H3976.56C3894.11 1187 3827.23 1126.2 3827.23 1051.15V619.113C3827.23 566.293 3780.49 500.101 3724.24 560.983C3716.68 569.203 3710.84 579.036 3706.34 591.15C3701.24 604.797 3698.78 618.956 3698.78 634.531V1051.15C3698.78 1126.16 3631.94 1187 3549.44 1187H3521.56C3439.11 1187 3372.22 1126.2 3372.22 1051.15V634.531C3372.22 618.956 3369.76 604.797 3364.7 591.189C3331.67 502.46 3243.81 540.611 3243.81 619.192V1051.11C3243.81 1126.12 3176.97 1186.96 3094.48 1186.96H3066.33C2983.88 1186.96 2917 1126.16 2917 1051.11V981.127C2903.11 1004.01 2887.21 1025.55 2869.39 1045.6C2829.27 1091.88 2778.99 1129.32 2719.91 1156.9C2658.89 1185.5 2587.58 1200 2511.4 1200C2435.21 1200 2365.59 1185.54 2304.39 1157.02C2304.33 1157 2304.27 1156.97 2304.22 1156.94C2304.16 1156.91 2304.11 1156.88 2304.04 1156.86C2245.52 1129.44 2195.12 1092.31 2154.22 1046.54C2153.87 1046.17 2153.51 1045.78 2153.17 1045.39C2152.97 1045.16 2152.77 1044.93 2152.58 1044.7C2117.28 1003.7 2089.51 956.498 2070.02 904.243C2050.7 956.298 2022.26 1003.81 1985.36 1045.6C1944.73 1092.16 1894.38 1129.64 1835.6 1157.02C1774.41 1185.54 1703.55 1200 1627.37 1200C1551.2 1200 1481.59 1185.54 1420.4 1157.02C1361.93 1129.71 1311.4 1092.55 1270.25 1046.5C1269.69 1045.92 1269.13 1045.29 1268.61 1044.66C1245.29 1017.62 1225.36 988.095 1209 956.429V1049.93C1209 1125.02 1142.43 1186 1060.48 1186H1032.52C950.565 1186 884 1125.02 884 1049.93V934.248C865.327 978.086 840.369 1017.96 809.515 1053.12C769.596 1098.54 720.054 1134.65 662.268 1160.41C604.137 1186.69 539.015 1200 468.801 1200C394.055 1200 326.085 1186.37 265.667 1159.31C240.895 1176.05 210.255 1185.94 177.111 1185.94H149.06C66.7188 1185.94 0 1125.04 0 1049.89V136.047C0 60.9335 66.7188 0 149.103 0H177.154C259.452 0 326.214 60.9335 326.257 136.126V258.662C370.233 246.649 417.877 240.622 468.844 240.622C542.295 240.622 610.136 255.393 670.468 284.54C670.698 284.619 670.928 284.733 671.158 284.846C671.273 284.903 671.388 284.96 671.503 285.013C729.073 313.333 777.58 351.736 815.6 399.199ZM556.364 865.988C556.191 866.225 556.019 866.461 555.846 866.658C547.085 878.041 536.21 886.588 521.623 893.599C521.106 893.836 520.588 894.072 520.07 894.348C507.511 900.492 490.292 903.643 468.844 903.643C447.396 903.643 428.925 900.177 413.734 893.087C413.605 893.009 413.518 892.969 413.346 892.89C396.515 885.052 382.446 874.654 370.406 861.144C357.2 845.073 346.929 826.206 339.204 803.479C330.616 777.916 326.257 750.542 326.257 722.221C326.257 637.261 349.303 595.707 368.636 575.816L368.643 575.808C368.9 575.535 369.157 575.261 369.456 574.949C386.805 556.831 412.224 538.279 468.844 538.279C483.344 538.279 503.325 539.815 515.97 547.023C516.445 547.286 516.915 547.548 517.385 547.811C518.325 548.336 519.264 548.861 520.242 549.386C536.081 557.736 548.423 568.174 558.004 581.291C558.155 581.488 558.295 581.685 558.435 581.882C558.576 582.079 558.716 582.275 558.867 582.472C571.339 599.133 580.358 618.276 586.53 640.964C586.789 642.027 587.091 643.091 587.393 644.115C594.988 669.441 598.786 695.713 598.786 722.182C598.786 751.211 594.643 779.059 586.486 804.897L586.485 804.902L586.485 804.904L586.484 804.905L586.484 804.906C586.226 805.809 585.968 806.712 585.667 807.576C579.15 829.948 569.569 849.012 556.364 865.91V865.988ZM1628.63 904.402C1651.99 904.402 1671.38 900.906 1686.32 894.03C1704.67 885.191 1719.48 874.23 1731.49 860.479C1744.88 844.725 1754.81 826.378 1761.8 804.416L1761.8 804.415L1761.8 804.413C1762.11 803.471 1762.41 802.529 1762.75 801.587C1771.39 776.6 1775.58 750.592 1775.58 722.109C1775.58 695.079 1771.26 668.835 1762.75 644.202L1762.65 643.906L1762.56 643.622L1762.55 643.617C1762.28 642.802 1762 642.002 1761.76 641.177C1755.02 619.923 1745.39 602.283 1732.27 587.314L1730.45 585.193C1718.71 571.206 1704.11 560.206 1685.8 551.484C1685.15 551.17 1684.55 550.895 1683.94 550.581C1669.69 543.548 1651.08 540.012 1628.63 540.012C1604.96 540.012 1585.62 543.627 1569.59 551.052C1551.8 559.97 1537.38 571.128 1525.59 585.153L1523.78 587.275C1510.22 602.715 1499.94 620.866 1492.3 642.67C1484.44 667.775 1480.46 693.469 1480.46 722.07C1480.46 750.671 1484.44 777.858 1492.25 802.962C1500.07 825.16 1510.91 844.489 1524.51 860.479C1536.34 874.033 1550.64 885.034 1568.13 893.952C1584.67 900.984 1605.26 904.402 1628.63 904.402ZM2570.56 893.991C2555.15 900.984 2536.27 904.363 2512.86 904.363C2489.46 904.363 2468.47 900.866 2452.36 893.912C2435.04 885.151 2420.61 874.112 2408.3 860.165C2394.74 844.175 2384.12 825.042 2376.6 803.277C2368.53 777.583 2364.47 750.239 2364.47 722.03C2364.47 693.822 2368.57 668.01 2376.65 642.277C2383.99 620.748 2394.18 602.715 2407.78 587.196C2408.02 586.941 2408.25 586.676 2408.48 586.411C2408.7 586.145 2408.93 585.88 2409.17 585.625C2421.52 571.088 2436.12 559.774 2453.91 551.013C2469.67 543.587 2488.98 539.973 2512.95 539.973C2535.62 539.973 2553.85 543.509 2568.66 550.738C2568.84 550.816 2569.02 550.904 2569.2 550.992C2569.39 551.081 2569.57 551.169 2569.74 551.248C2588.19 560.088 2603.04 571.324 2615.22 585.625L2616.13 586.685C2629.6 602.243 2639.41 620.04 2646.1 641.099C2646.25 641.552 2646.4 641.993 2646.55 642.435C2646.66 642.759 2646.77 643.084 2646.88 643.416C2655.52 668.992 2659.92 695.472 2659.92 722.03C2659.92 748.589 2655.52 776.64 2646.88 802.216C2646.62 802.923 2646.4 803.63 2646.19 804.337C2639.45 825.513 2629.22 844.371 2615.87 860.4C2603.6 874.151 2588.83 885.151 2570.69 893.952L2570.56 893.991Z" fill="black"/>
</svg>
